<svg xmlns="http://www.w3.org/2000/svg" viewBox="0 0 64 64"><rect width="64" height="64" rx="14" fill="#6731a3"/><g transform="translate(32 32) scale(0.385)"><path d="M60.04 -11.78L60.92 -10.29L61.63 -8.71L62.17 -7.06L62.54 -5.36L62.74 -3.65L62.78 -1.94L62.67 -0.24L62.43 1.43L62.07 3.05L61.60 4.63L61.03 6.16L60.38 7.64L59.65 9.07L58.85 10.45L57.97 11.77L57.01 13.04L55.97 14.23L54.83 15.33L53.59 16.30L52.25 17.10L50.83 17.73L49.39 18.23L47.93 18.62L46.46 18.90L45.01 19.08L43.57 19.18L42.14 19.20L40.74 19.14L39.36 19.02L38.00 18.84L36.67 18.61L35.36 18.32L34.08 17.99L32.83 17.61L31.59 17.20L30.39 16.74L29.20 16.25L28.04 15.73L26.90 15.18L25.79 14.60L24.69 13.99L23.61 13.36L22.56 12.71L21.52 12.03L20.50 11.34L19.49 10.62L18.50 9.89L17.52 9.14L16.56 8.38L15.61 7.60L14.67 6.81L13.75 6.00L12.83 5.18L11.92 4.36L11.01 3.52L10.11 2.67L9.22 1.82L8.33 0.95L7.44 0.08L6.55 -0.79L5.67 -1.68L4.78 -2.57L3.88 -3.46L2.99 -4.36L2.08 -5.26L1.17 -6.16L0.25 -7.06L-0.68 -7.97L-1.62 -8.87L-2.58 -9.78L-3.55 -10.68L-4.53 -11.58L-5.54 -12.47L-6.56 -13.36L-7.61 -14.24L-8.68 -15.12L-9.78 -15.98L-10.90 -16.83L-12.05 -17.67L-13.23 -18.48L-14.44 -19.28L-15.69 -20.06L-16.97 -20.81L-18.28 -21.53L-19.63 -22.22L-21.02 -22.88L-22.45 -23.49L-23.91 -24.06L-25.41 -24.58L-26.95 -25.04L-28.52 -25.45L-30.13 -25.79L-31.77 -26.05L-33.44 -26.25L-35.13 -26.35L-36.85 -26.37L-38.58 -26.30L-40.32 -26.13L-42.06 -25.85L-43.79 -25.47L-45.51 -24.98L-47.21 -24.38L-48.87 -23.67L-50.50 -22.86L-52.08 -21.95L-53.62 -20.97L-55.14 -19.94L-56.65 -18.88L-58.16 -17.77L-59.65 -16.58L-61.09 -15.28L-62.47 -13.86L-63.75 -12.31L-64.92 -10.64L-65.97 -8.84L-66.86 -6.94L-67.58 -4.94L-68.13 -2.86L-68.48 -0.72L-68.63 1.46L-68.57 3.65L-68.31 5.84L-67.84 7.99L-67.16 10.09L-66.30 12.11L-65.26 14.03L-64.06 15.84L-62.71 17.52L-61.23 19.06L-59.64 20.45L-57.97 21.69L-56.22 22.78L-54.42 23.71L-52.58 24.50L-50.72 25.14L-48.86 25.63L-46.99 26.00L-45.14 26.24L-43.31 26.36L-41.50 26.38L-39.74 26.29L-38.01 26.12L-36.32 25.87L-34.67 25.54L-33.06 25.14L-31.50 24.68L-29.99 24.17L-28.52 23.62L-27.09 23.02L-25.70 22.39L-24.34 21.72L-23.03 21.03L-21.74 20.32L-20.49 19.59L-19.26 18.84L-18.06 18.08L-16.89 17.31L-15.74 16.53L-14.60 15.74L-13.49 14.94L-12.40 14.12L-11.33 13.30L-10.28 12.47L-9.24 11.63L-8.22 10.78L-7.22 9.93L-6.24 9.06L-5.27 8.19L-4.31 7.31L-3.37 6.43L-6.44 3.26L-7.33 4.14L-8.24 5.02L-9.15 5.90L-10.07 6.76L-11.00 7.62L-11.94 8.47L-12.90 9.31L-13.87 10.14L-14.86 10.95L-15.88 11.74L-16.92 12.51L-17.98 13.25L-19.07 13.96L-20.18 14.64L-21.33 15.29L-22.50 15.89L-23.71 16.45L-24.94 16.97L-26.19 17.44L-27.47 17.86L-28.77 18.22L-30.09 18.54L-31.42 18.79L-32.78 18.98L-34.14 19.11L-35.51 19.17L-36.88 19.17L-38.25 19.10L-39.62 18.95L-40.97 18.74L-42.32 18.45L-43.64 18.08L-44.94 17.65L-46.21 17.14L-47.44 16.56L-48.64 15.92L-49.79 15.20L-50.89 14.42L-51.94 13.58L-52.94 12.68L-53.88 11.72L-54.76 10.71L-55.57 9.65L-56.32 8.54L-57.01 7.38L-57.62 6.18L-58.16 4.93L-58.63 3.64L-59.01 2.30L-59.30 0.93L-59.50 -0.47L-59.60 -1.90L-59.60 -3.36L-59.49 -4.83L-59.26 -6.31L-58.91 -7.78L-58.44 -9.24L-57.84 -10.67L-57.12 -12.06L-56.27 -13.37L-55.29 -14.60L-54.17 -15.70L-52.92 -16.64L-51.57 -17.39L-50.15 -17.98L-48.69 -18.43L-47.23 -18.77L-45.77 -19.00L-44.32 -19.14L-42.89 -19.20L-41.47 -19.18L-40.08 -19.09L-38.71 -18.95L-37.37 -18.74L-36.05 -18.48L-34.75 -18.17L-33.48 -17.82L-32.24 -17.42L-31.02 -16.99L-29.82 -16.52L-28.65 -16.01L-27.50 -15.47L-26.37 -14.91L-25.26 -14.32L-24.18 -13.70L-23.11 -13.06L-22.06 -12.39L-21.03 -11.71L-20.02 -11.00L-19.02 -10.28L-18.04 -9.54L-17.07 -8.78L-16.11 -8.01L-15.17 -7.22L-14.23 -6.43L-13.31 -5.61L-12.39 -4.79L-11.49 -3.96L-10.58 -3.12L-9.69 -2.27L-8.80 -1.41L-7.91 -0.54L-7.02 0.33L-6.13 1.21L-5.24 2.10L-4.35 2.99L-3.46 3.88L-2.56 4.78L-1.65 5.68L-0.74 6.59L0.19 7.49L1.12 8.40L2.07 9.30L3.03 10.21L4.01 11.11L5.01 12.00L6.02 12.90L7.06 13.78L8.12 14.66L9.20 15.53L10.31 16.39L11.44 17.23L12.61 18.06L13.80 18.87L15.03 19.66L16.29 20.42L17.59 21.16L18.92 21.87L20.29 22.54L21.69 23.18L23.14 23.77L24.62 24.31L26.14 24.81L27.69 25.24L29.28 25.62L30.90 25.92L32.56 26.16L34.24 26.31L35.95 26.37L37.67 26.35L39.40 26.23L41.14 26.01L42.88 25.68L44.61 25.25L46.32 24.71L48.00 24.06L49.65 23.30L51.26 22.44L52.81 21.48L54.32 20.45L55.80 19.36L57.25 18.22L58.67 17.01L60.02 15.69L61.27 14.25L62.38 12.69L63.35 11.02L64.15 9.25L64.76 7.40L65.18 5.50L65.42 3.58L65.46 1.65L65.33 -0.27L65.03 -2.15L64.58 -3.98L63.99 -5.76L63.29 -7.46L62.49 -9.10L61.61 -10.68L60.65 -12.19ZM6.44 -3.26L7.12 -3.93L7.81 -4.61L8.50 -5.28L9.20 -5.95L9.90 -6.61L10.61 -7.27L11.33 -7.92L12.05 -8.57L12.78 -9.21L13.52 -9.84L14.27 -10.47L15.04 -11.08L15.81 -11.69L16.60 -12.28L17.39 -12.87L18.19 -13.46L19.01 -14.04L19.83 -14.60L20.67 -15.16L21.52 -15.71L22.39 -16.24L23.27 -16.76L24.17 -17.26L25.08 -17.75L26.01 -18.23L26.95 -18.69L27.91 -19.13L28.89 -19.55L29.89 -19.96L30.90 -20.34L31.94 -20.69L32.99 -21.02L34.07 -21.32L35.17 -21.58L36.28 -21.80L37.41 -21.98L38.57 -22.11L39.73 -22.19L40.91 -22.21L42.10 -22.16L43.30 -22.04L44.49 -21.85L44.60 -22.42L43.38 -22.63L42.17 -22.80L40.96 -22.95L39.75 -23.06L38.54 -23.13L37.34 -23.17L36.15 -23.17L34.96 -23.13L33.78 -23.05L32.61 -22.93L31.45 -22.77L30.30 -22.57L29.17 -22.34L28.05 -22.06L26.95 -21.76L25.87 -21.42L24.80 -21.05L23.75 -20.65L22.72 -20.23L21.71 -19.78L20.72 -19.31L19.75 -18.81L18.79 -18.30L17.85 -17.77L16.93 -17.23L16.03 -16.66L15.14 -16.09L14.27 -15.49L13.42 -14.88L12.59 -14.26L11.76 -13.64L10.95 -13.01L10.15 -12.37L9.36 -11.73L8.58 -11.08L7.81 -10.43L7.04 -9.77L6.29 -9.11L5.55 -8.45L4.81 -7.78L4.09 -7.11L3.37 -6.43Z" fill="#ffffff"/></g></svg>
